<?xml version="1.0" ?><!DOCTYPE svg  PUBLIC '-//W3C//DTD SVG 1.1//EN'  'http://www.w3.org/Graphics/SVG/1.1/DTD/svg11.dtd'><svg xmlns="http://www.w3.org/2000/svg" width="874.000" height="704.000" viewBox="-12.000 -12.000 874.000 704.000"><line x1="0.0" y1="340.0" x2="850.0" y2="340.0" stroke="#000" fill="none" stroke-dasharray="3,3" stroke-dashoffset="0"/><line x1="425.0" y1="680.0" x2="425.0" y2="0.0" stroke="#000" fill="none" stroke-dasharray="3,3" stroke-dashoffset="0"/><line x1="42.5" y1="680.0" x2="42.5" y2="0.0" stroke="#000" fill="none" stroke-dasharray="3,3" stroke-dashoffset="0"/><line x1="85.0" y1="680.0" x2="85.0" y2="0.0" stroke="#000" fill="none" stroke-dasharray="3,3" stroke-dashoffset="0"/><line x1="127.5" y1="680.0" x2="127.5" y2="0.0" stroke="#000" fill="none" stroke-dasharray="3,3" stroke-dashoffset="0"/><line x1="170.0" y1="680.0" x2="170.0" y2="0.0" stroke="#000" fill="none" stroke-dasharray="3,3" stroke-dashoffset="0"/><line x1="212.5" y1="680.0" x2="212.5" y2="0.0" stroke="#000" fill="none" stroke-dasharray="3,3" stroke-dashoffset="0"/><line x1="255.0" y1="680.0" x2="255.0" y2="0.0" stroke="#000" fill="none" stroke-dasharray="3,3" stroke-dashoffset="0"/><line x1="297.5" y1="680.0" x2="297.5" y2="0.0" stroke="#000" fill="none" stroke-dasharray="3,3" stroke-dashoffset="0"/><line x1="340.0" y1="680.0" x2="340.0" y2="0.0" stroke="#000" fill="none" stroke-dasharray="3,3" stroke-dashoffset="0"/><line x1="382.5" y1="680.0" x2="382.5" y2="0.0" stroke="#000" fill="none" stroke-dasharray="3,3" stroke-dashoffset="0"/><line x1="467.5" y1="680.0" x2="467.5" y2="0.0" stroke="#000" fill="none" stroke-dasharray="3,3" stroke-dashoffset="0"/><line x1="510.0" y1="680.0" x2="510.0" y2="0.0" stroke="#000" fill="none" stroke-dasharray="3,3" stroke-dashoffset="0"/><line x1="552.5" y1="680.0" x2="552.5" y2="0.0" stroke="#000" fill="none" stroke-dasharray="3,3" stroke-dashoffset="0"/><line x1="595.0" y1="680.0" x2="595.0" y2="0.0" stroke="#000" fill="none" stroke-dasharray="3,3" stroke-dashoffset="0"/><line x1="637.5" y1="680.0" x2="637.5" y2="0.0" stroke="#000" fill="none" stroke-dasharray="3,3" stroke-dashoffset="0"/><line x1="680.0" y1="680.0" x2="680.0" y2="0.0" stroke="#000" fill="none" stroke-dasharray="3,3" stroke-dashoffset="0"/><line x1="722.5" y1="680.0" x2="722.5" y2="0.0" stroke="#000" fill="none" stroke-dasharray="3,3" stroke-dashoffset="0"/><line x1="765.0" y1="680.0" x2="765.0" y2="0.0" stroke="#000" fill="none" stroke-dasharray="3,3" stroke-dashoffset="0"/><line x1="807.5" y1="680.0" x2="807.5" y2="0.0" stroke="#000" fill="none" stroke-dasharray="3,3" stroke-dashoffset="0"/><line x1="0.0" y1="34.0" x2="850.0" y2="34.0" stroke="#000" fill="none" stroke-dasharray="3,3" stroke-dashoffset="0"/><line x1="0.0" y1="68.0" x2="850.0" y2="68.0" stroke="#000" fill="none" stroke-dasharray="3,3" stroke-dashoffset="0"/><line x1="0.0" y1="102.0" x2="850.0" y2="102.0" stroke="#000" fill="none" stroke-dasharray="3,3" stroke-dashoffset="0"/><line x1="0.0" y1="136.0" x2="850.0" y2="136.0" stroke="#000" fill="none" stroke-dasharray="3,3" stroke-dashoffset="0"/><line x1="0.0" y1="170.0" x2="850.0" y2="170.0" stroke="#000" fill="none" stroke-dasharray="3,3" stroke-dashoffset="0"/><line x1="0.0" y1="204.0" x2="850.0" y2="204.0" stroke="#000" fill="none" stroke-dasharray="3,3" stroke-dashoffset="0"/><line x1="0.0" y1="238.0" x2="850.0" y2="238.0" stroke="#000" fill="none" stroke-dasharray="3,3" stroke-dashoffset="0"/><line x1="0.0" y1="272.0" x2="850.0" y2="272.0" stroke="#000" fill="none" stroke-dasharray="3,3" stroke-dashoffset="0"/><line x1="0.0" y1="306.0" x2="850.0" y2="306.0" stroke="#000" fill="none" stroke-dasharray="3,3" stroke-dashoffset="0"/><line x1="0.0" y1="374.0" x2="850.0" y2="374.0" stroke="#000" fill="none" stroke-dasharray="3,3" stroke-dashoffset="0"/><line x1="0.0" y1="408.0" x2="850.0" y2="408.0" stroke="#000" fill="none" stroke-dasharray="3,3" stroke-dashoffset="0"/><line x1="0.0" y1="442.0" x2="850.0" y2="442.0" stroke="#000" fill="none" stroke-dasharray="3,3" stroke-dashoffset="0"/><line x1="0.0" y1="476.0" x2="850.0" y2="476.0" stroke="#000" fill="none" stroke-dasharray="3,3" stroke-dashoffset="0"/><line x1="0.0" y1="510.0" x2="850.0" y2="510.0" stroke="#000" fill="none" stroke-dasharray="3,3" stroke-dashoffset="0"/><line x1="0.0" y1="544.0" x2="850.0" y2="544.0" stroke="#000" fill="none" stroke-dasharray="3,3" stroke-dashoffset="0"/><line x1="0.0" y1="578.0" x2="850.0" y2="578.0" stroke="#000" fill="none" stroke-dasharray="3,3" stroke-dashoffset="0"/><line x1="0.0" y1="612.0" x2="850.0" y2="612.0" stroke="#000" fill="none" stroke-dasharray="3,3" stroke-dashoffset="0"/><line x1="0.0" y1="646.0" x2="850.0" y2="646.0" stroke="#000" fill="none" stroke-dasharray="3,3" stroke-dashoffset="0"/><line x1="425.0" y1="340.0" x2="425.0" y2="333.306201262659" stroke="#afeeee" fill="none" stroke-width="2.0"/><line x1="425.0" y1="333.306201262659" x2="425.0" y2="326.6124025253179" stroke="#afeeee" fill="none" stroke-width="2.0"/><line x1="425.0" y1="326.6124025253179" x2="425.0" y2="319.9186037879769" stroke="#afeeee" fill="none" stroke-width="2.0"/><line x1="425.0" y1="319.9186037879769" x2="425.0" y2="313.2248050506359" stroke="#afeeee" fill="none" stroke-width="2.0"/><line x1="425.0" y1="313.2248050506359" x2="425.0" y2="306.5310063132948" stroke="#afeeee" fill="none" stroke-width="2.0"/><line x1="425.0" y1="306.5310063132948" x2="421.50536142895305" y2="301.06276629730206" stroke="#afeeee" fill="none" stroke-width="2.0"/><line x1="421.50536142895305" y1="301.06276629730206" x2="418.0012116496631" y2="295.5796436064755" stroke="#afeeee" fill="none" stroke-width="2.0"/><line x1="418.0012116496631" y1="295.5796436064755" x2="412.31113373919493" y2="293.40291571944607" stroke="#afeeee" fill="none" stroke-width="2.0"/><line x1="412.31113373919493" y1="293.40291571944607" x2="406.59588740491404" y2="291.2165597023896" stroke="#afeeee" fill="none" stroke-width="2.0"/><line x1="406.59588740491404" y1="291.2165597023896" x2="400.8553052887598" y2="293.1963500713147" stroke="#afeeee" fill="none" stroke-width="2.0"/><line x1="400.8553052887598" y1="293.1963500713147" x2="395.0892185455729" y2="295.1849363800837" stroke="#afeeee" fill="none" stroke-width="2.0"/><line x1="395.0892185455729" y1="295.1849363800837" x2="391.51275437601356" y2="300.60924250122673" stroke="#afeeee" fill="none" stroke-width="2.0"/><line x1="391.51275437601356" y1="300.60924250122673" x2="387.92644276459424" y2="306.0484839150574" stroke="#afeeee" fill="none" stroke-width="2.0"/><line x1="387.92644276459424" y1="306.0484839150574" x2="387.92644276459424" y2="312.8387871320459" stroke="#afeeee" fill="none" stroke-width="2.0"/><line x1="387.92644276459424" y1="312.8387871320459" x2="387.92644276459424" y2="319.6290903490344" stroke="#afeeee" fill="none" stroke-width="2.0"/><line x1="387.92644276459424" y1="319.6290903490344" x2="384.3302429843039" y2="325.10205103091175" stroke="#afeeee" fill="none" stroke-width="2.0"/><line x1="387.92644276459424" y1="319.6290903490344" x2="391.51275437601356" y2="325.1430146714872" stroke="#afeeee" fill="none" stroke-width="2.0"/><line x1="387.92644276459424" y1="319.6290903490344" x2="389.67610398555775" y2="325.08311491093724" stroke="#afeeee" fill="none" stroke-width="2.0"/><line x1="387.92644276459424" y1="319.6290903490344" x2="386.1860107290812" y2="325.161799114017" stroke="#afeeee" fill="none" stroke-width="2.0"/><line x1="387.92644276459424" y1="319.6290903490344" x2="387.92644276459424" y2="326.4193935660229" stroke="#afeeee" fill="none" stroke-width="2.0"/><line x1="387.92644276459424" y1="306.0484839150574" x2="383.59389380980207" y2="311.27540943034523" stroke="#afeeee" fill="none" stroke-width="2.0"/><line x1="383.59389380980207" y1="311.27540943034523" x2="379.26204592597065" y2="316.5014891512217" stroke="#afeeee" fill="none" stroke-width="2.0"/><line x1="379.26204592597065" y1="316.5014891512217" x2="374.93089894294826" y2="321.72672328296335" stroke="#afeeee" fill="none" stroke-width="2.0"/><line x1="374.93089894294826" y1="321.72672328296335" x2="372.3915161570569" y2="326.91474048110456" stroke="#afeeee" fill="none" stroke-width="2.0"/><line x1="374.93089894294826" y1="321.72672328296335" x2="370.4686793108605" y2="324.9973751825201" stroke="#afeeee" fill="none" stroke-width="2.0"/><line x1="374.93089894294826" y1="321.72672328296335" x2="374.34704606730463" y2="328.31169117788744" stroke="#afeeee" fill="none" stroke-width="2.0"/><line x1="374.93089894294826" y1="321.72672328296335" x2="368.5013255357454" y2="323.5898671265003" stroke="#afeeee" fill="none" stroke-width="2.0"/><line x1="374.93089894294826" y1="321.72672328296335" x2="370.60045269063806" y2="326.95111203078034" stroke="#afeeee" fill="none" stroke-width="2.0"/><line x1="395.0892185455729" y1="295.1849363800837" x2="388.66366490022847" y2="297.14395110205993" stroke="#afeeee" fill="none" stroke-width="2.0"/><line x1="388.66366490022847" y1="297.14395110205993" x2="382.2287641225453" y2="299.10581556599936" stroke="#afeeee" fill="none" stroke-width="2.0"/><line x1="382.2287641225453" y1="299.10581556599936" x2="375.784495802031" y2="301.0705359946273" stroke="#afeeee" fill="none" stroke-width="2.0"/><line x1="375.784495802031" y1="301.0705359946273" x2="370.01221006539095" y2="302.39079003195104" stroke="#afeeee" fill="none" stroke-width="2.0"/><line x1="370.01221006539095" y1="302.39079003195104" x2="364.2666875835111" y2="303.7049226995504" stroke="#afeeee" fill="none" stroke-width="2.0"/><line x1="364.2666875835111" y1="303.7049226995504" x2="357.83462473286403" y2="305.66528598941557" stroke="#afeeee" fill="none" stroke-width="2.0"/><line x1="364.2666875835111" y1="303.7049226995504" x2="361.4318785306891" y2="303.86663791665296" stroke="#afeeee" fill="none" stroke-width="2.0"/><line x1="364.2666875835111" y1="303.7049226995504" x2="360.751315806704" y2="308.54599417181305" stroke="#afeeee" fill="none" stroke-width="2.0"/><line x1="364.2666875835111" y1="303.7049226995504" x2="358.52358178107534" y2="300.97806516522445" stroke="#afeeee" fill="none" stroke-width="2.0"/><line x1="364.2666875835111" y1="303.7049226995504" x2="358.54774265478756" y2="305.01297647163796" stroke="#afeeee" fill="none" stroke-width="2.0"/><line x1="375.784495802031" y1="301.0705359946273" x2="369.059196198035" y2="300.9371460328539" stroke="#afeeee" fill="none" stroke-width="2.0"/><line x1="369.059196198035" y1="300.9371460328539" x2="362.3215562420725" y2="300.80351131186177" stroke="#afeeee" fill="none" stroke-width="2.0"/><line x1="362.3215562420725" y1="300.80351131186177" x2="355.5715419377109" y2="300.66963115736377" stroke="#afeeee" fill="none" stroke-width="2.0"/><line x1="355.5715419377109" y1="300.66963115736377" x2="349.99663061531885" y2="304.5550471979412" stroke="#afeeee" fill="none" stroke-width="2.0"/><line x1="355.5715419377109" y1="300.66963115736377" x2="350.20660111317653" y2="296.56505014009247" stroke="#afeeee" fill="none" stroke-width="2.0"/><line x1="355.5715419377109" y1="300.66963115736377" x2="349.60783373918355" y2="300.2951542764978" stroke="#afeeee" fill="none" stroke-width="2.0"/><line x1="355.5715419377109" y1="300.66963115736377" x2="350.5982406792475" y2="300.82868752514" stroke="#afeeee" fill="none" stroke-width="2.0"/><line x1="355.5715419377109" y1="300.66963115736377" x2="348.8091191635273" y2="300.53550489259374" stroke="#afeeee" fill="none" stroke-width="2.0"/><line x1="406.59588740491404" y1="291.2165597023896" x2="400.2071020804323" y2="289.1984889972741" stroke="#afeeee" fill="none" stroke-width="2.0"/><line x1="400.2071020804323" y1="289.1984889972741" x2="393.8090642771041" y2="287.1774956463721" stroke="#afeeee" fill="none" stroke-width="2.0"/><line x1="393.8090642771041" y1="287.1774956463721" x2="387.4017538806836" y2="285.15357329605473" stroke="#afeeee" fill="none" stroke-width="2.0"/><line x1="387.4017538806836" y1="285.15357329605473" x2="381.6281215459897" y2="284.05609602549924" stroke="#afeeee" fill="none" stroke-width="2.0"/><line x1="381.6281215459897" y1="284.05609602549924" x2="375.881140592743" y2="282.96368476602163" stroke="#afeeee" fill="none" stroke-width="2.0"/><line x1="375.881140592743" y1="282.96368476602163" x2="373.00726259608143" y2="283.2166976604242" stroke="#afeeee" fill="none" stroke-width="2.0"/><line x1="373.00726259608143" y1="283.2166976604242" x2="370.1587690196548" y2="283.46747573983316" stroke="#afeeee" fill="none" stroke-width="2.0"/><line x1="370.1587690196548" y1="283.46747573983316" x2="364.5017290671883" y2="282.38852833533383" stroke="#afeeee" fill="none" stroke-width="2.0"/><line x1="370.1587690196548" y1="283.46747573983316" x2="371.23491764363825" y2="284.9456852906073" stroke="#afeeee" fill="none" stroke-width="2.0"/><line x1="370.1587690196548" y1="283.46747573983316" x2="366.7783086731329" y2="287.35985220621126" stroke="#afeeee" fill="none" stroke-width="2.0"/><line x1="370.1587690196548" y1="283.46747573983316" x2="368.96605105041743" y2="279.9807071725052" stroke="#afeeee" fill="none" stroke-width="2.0"/><line x1="370.1587690196548" y1="283.46747573983316" x2="367.3353250186069" y2="283.7160484836026" stroke="#afeeee" fill="none" stroke-width="2.0"/><line x1="375.881140592743" y1="282.96368476602163" x2="371.02030440385005" y2="279.97052630449053" stroke="#afeeee" fill="none" stroke-width="2.0"/><line x1="371.02030440385005" y1="279.97052630449053" x2="366.1828483759499" y2="276.9917646512426" stroke="#afeeee" fill="none" stroke-width="2.0"/><line x1="366.1828483759499" y1="276.9917646512426" x2="361.3686042292124" y2="274.02729618455976" stroke="#afeeee" fill="none" stroke-width="2.0"/><line x1="361.3686042292124" y1="274.02729618455976" x2="355.41852998902385" y2="274.96359463328093" stroke="#afeeee" fill="none" stroke-width="2.0"/><line x1="361.3686042292124" y1="274.02729618455976" x2="359.56288645362935" y2="268.31504287293404" stroke="#afeeee" fill="none" stroke-width="2.0"/><line x1="361.3686042292124" y1="274.02729618455976" x2="359.26928971798174" y2="272.7909914275389" stroke="#afeeee" fill="none" stroke-width="2.0"/><line x1="361.3686042292124" y1="274.02729618455976" x2="355.70290326171977" y2="270.481845165922" stroke="#afeeee" fill="none" stroke-width="2.0"/><line x1="361.3686042292124" y1="274.02729618455976" x2="356.57740529487876" y2="271.07701827477365" stroke="#afeeee" fill="none" stroke-width="2.0"/><line x1="387.4017538806836" y1="285.15357329605473" x2="381.88168213883694" y2="281.2520540180166" stroke="#afeeee" fill="none" stroke-width="2.0"/><line x1="381.88168213883694" y1="281.2520540180166" x2="376.35645385284204" y2="277.34689015756294" stroke="#afeeee" fill="none" stroke-width="2.0"/><line x1="376.35645385284204" y1="277.34689015756294" x2="370.82606179388705" y2="273.438076605458" stroke="#afeeee" fill="none" stroke-width="2.0"/><line x1="370.82606179388705" y1="273.438076605458" x2="368.5771314302898" y2="267.0749765257949" stroke="#afeeee" fill="none" stroke-width="2.0"/><line x1="368.5771314302898" y1="267.0749765257949" x2="366.3289065768235" y2="260.71387260912644" stroke="#afeeee" fill="none" stroke-width="2.0"/><line x1="366.3289065768235" y1="260.71387260912644" x2="360.7929790708772" y2="256.7966853856034" stroke="#afeeee" fill="none" stroke-width="2.0"/><line x1="366.3289065768235" y1="260.71387260912644" x2="368.2237483044678" y2="254.3429550715765" stroke="#afeeee" fill="none" stroke-width="2.0"/><line x1="366.3289065768235" y1="260.71387260912644" x2="363.9784633894771" y2="256.19237344416365" stroke="#afeeee" fill="none" stroke-width="2.0"/><line x1="366.3289065768235" y1="260.71387260912644" x2="365.0457811271043" y2="254.9421742894732" stroke="#afeeee" fill="none" stroke-width="2.0"/><line x1="366.3289065768235" y1="260.71387260912644" x2="364.0813869015524" y2="254.354763916278" stroke="#afeeee" fill="none" stroke-width="2.0"/><line x1="370.82606179388705" y1="273.438076605458" x2="365.84439690240777" y2="269.4094372085078" stroke="#afeeee" fill="none" stroke-width="2.0"/><line x1="365.84439690240777" y1="269.4094372085078" x2="360.84298847266183" y2="265.3648313429515" stroke="#afeeee" fill="none" stroke-width="2.0"/><line x1="360.84298847266183" y1="265.3648313429515" x2="355.82171889900064" y2="261.3041639018801" stroke="#afeeee" fill="none" stroke-width="2.0"/><line x1="355.82171889900064" y1="261.3041639018801" x2="350.2585778712653" y2="257.8829905828795" stroke="#afeeee" fill="none" stroke-width="2.0"/><line x1="355.82171889900064" y1="261.3041639018801" x2="353.2390991121787" y2="258.13207449345106" stroke="#afeeee" fill="none" stroke-width="2.0"/><line x1="355.82171889900064" y1="261.3041639018801" x2="353.99774066170755" y2="254.79267871236067" stroke="#afeeee" fill="none" stroke-width="2.0"/><line x1="355.82171889900064" y1="261.3041639018801" x2="349.4894526499479" y2="261.22518044378546" stroke="#afeeee" fill="none" stroke-width="2.0"/><line x1="355.82171889900064" y1="261.3041639018801" x2="350.78046963986736" y2="257.22733902152174" stroke="#afeeee" fill="none" stroke-width="2.0"/><line x1="418.0012116496631" y1="295.5796436064755" x2="413.7162037817672" y2="290.41924342518064" stroke="#afeeee" fill="none" stroke-width="2.0"/><line x1="413.7162037817672" y1="290.41924342518064" x2="409.43188129921185" y2="285.2596686478863" stroke="#afeeee" fill="none" stroke-width="2.0"/><line x1="409.43188129921185" y1="285.2596686478863" x2="405.14824403756967" y2="280.1009190765736" stroke="#afeeee" fill="none" stroke-width="2.0"/><line x1="405.14824403756967" y1="280.1009190765736" x2="400.65302623233123" y2="277.0859136409434" stroke="#afeeee" fill="none" stroke-width="2.0"/><line x1="400.65302623233123" y1="277.0859136409434" x2="396.1828164689231" y2="274.08768144863956" stroke="#afeeee" fill="none" stroke-width="2.0"/><line x1="396.1828164689231" y1="274.08768144863956" x2="393.2417404094949" y2="274.3778131560778" stroke="#afeeee" fill="none" stroke-width="2.0"/><line x1="393.2417404094949" y1="274.3778131560778" x2="390.3264428345635" y2="274.665401863753" stroke="#afeeee" fill="none" stroke-width="2.0"/><line x1="390.3264428345635" y1="274.665401863753" x2="390.03388808461835" y2="278.07917513405687" stroke="#afeeee" fill="none" stroke-width="2.0"/><line x1="390.03388808461835" y1="278.07917513405687" x2="389.74384727759383" y2="281.4636136178039" stroke="#afeeee" fill="none" stroke-width="2.0"/><line x1="389.74384727759383" y1="281.4636136178039" x2="386.8812363809198" y2="281.7168441923824" stroke="#afeeee" fill="none" stroke-width="2.0"/><line x1="389.74384727759383" y1="281.4636136178039" x2="392.14535521819283" y2="286.6483736756494" stroke="#afeeee" fill="none" stroke-width="2.0"/><line x1="389.74384727759383" y1="281.4636136178039" x2="386.7135594341564" y2="286.3807968330398" stroke="#afeeee" fill="none" stroke-width="2.0"/><line x1="389.74384727759383" y1="281.4636136178039" x2="392.3024834192967" y2="281.984863066081" stroke="#afeeee" fill="none" stroke-width="2.0"/><line x1="389.74384727759383" y1="281.4636136178039" x2="389.45628814839364" y2="284.81909381109807" stroke="#afeeee" fill="none" stroke-width="2.0"/><line x1="390.3264428345635" y1="274.665401863753" x2="389.0585423664213" y2="273.77774434962413" stroke="#afeeee" fill="none" stroke-width="2.0"/><line x1="389.0585423664213" y1="273.77774434962413" x2="387.8025447136479" y2="272.89842000025624" stroke="#afeeee" fill="none" stroke-width="2.0"/><line x1="387.8025447136479" y1="272.89842000025624" x2="386.55828304717596" y2="272.02731201856693" stroke="#afeeee" fill="none" stroke-width="2.0"/><line x1="386.55828304717596" y1="272.02731201856693" x2="382.39891397863437" y2="273.4479890917867" stroke="#afeeee" fill="none" stroke-width="2.0"/><line x1="386.55828304717596" y1="272.02731201856693" x2="388.7198815284571" y2="269.2100020142642" stroke="#afeeee" fill="none" stroke-width="2.0"/><line x1="386.55828304717596" y1="272.02731201856693" x2="387.58020161194503" y2="274.4689030367621" stroke="#afeeee" fill="none" stroke-width="2.0"/><line x1="386.55828304717596" y1="272.02731201856693" x2="383.53692750467314" y2="268.1832394042293" stroke="#afeeee" fill="none" stroke-width="2.0"/><line x1="386.55828304717596" y1="272.02731201856693" x2="385.3255936411267" y2="271.1643057800173" stroke="#afeeee" fill="none" stroke-width="2.0"/><line x1="396.1828164689231" y1="274.08768144863956" x2="393.4483560842512" y2="270.0828842843235" stroke="#afeeee" fill="none" stroke-width="2.0"/><line x1="393.4483560842512" y1="270.0828842843235" x2="390.73139791888303" y2="266.103720271846" stroke="#afeeee" fill="none" stroke-width="2.0"/><line x1="390.73139791888303" y1="266.103720271846" x2="388.03177447150796" y2="262.1499440945158" stroke="#afeeee" fill="none" stroke-width="2.0"/><line x1="388.03177447150796" y1="262.1499440945158" x2="389.33788130750196" y2="257.41669992128186" stroke="#afeeee" fill="none" stroke-width="2.0"/><line x1="389.33788130750196" y1="257.41669992128186" x2="390.6359106426035" y2="252.71272807323584" stroke="#afeeee" fill="none" stroke-width="2.0"/><line x1="390.6359106426035" y1="252.71272807323584" x2="387.96176353442536" y2="248.83814190349005" stroke="#afeeee" fill="none" stroke-width="2.0"/><line x1="390.6359106426035" y1="252.71272807323584" x2="395.4035581988811" y2="249.01871796952253" stroke="#afeeee" fill="none" stroke-width="2.0"/><line x1="390.6359106426035" y1="252.71272807323584" x2="392.32888895889727" y2="251.63731326718272" stroke="#afeeee" fill="none" stroke-width="2.0"/><line x1="390.6359106426035" y1="252.71272807323584" x2="391.02869740726163" y2="246.20785350090836" stroke="#afeeee" fill="none" stroke-width="2.0"/><line x1="390.6359106426035" y1="252.71272807323584" x2="391.9259371776949" y2="248.0377578393567" stroke="#afeeee" fill="none" stroke-width="2.0"/><line x1="388.03177447150796" y1="262.1499440945158" x2="385.1291108556947" y2="256.9867634747191" stroke="#afeeee" fill="none" stroke-width="2.0"/><line x1="385.1291108556947" y1="256.9867634747191" x2="382.23745632286267" y2="251.84316551809468" stroke="#afeeee" fill="none" stroke-width="2.0"/><line x1="382.23745632286267" y1="251.84316551809468" x2="379.3567483594802" y2="246.71903902723955" stroke="#afeeee" fill="none" stroke-width="2.0"/><line x1="379.3567483594802" y1="246.71903902723955" x2="377.2037167373454" y2="244.4818620158244" stroke="#afeeee" fill="none" stroke-width="2.0"/><line x1="379.3567483594802" y1="246.71903902723955" x2="376.8637463621175" y2="240.68365508467963" stroke="#afeeee" fill="none" stroke-width="2.0"/><line x1="379.3567483594802" y1="246.71903902723955" x2="380.5002831809008" y2="241.05054425300762" stroke="#afeeee" fill="none" stroke-width="2.0"/><line x1="379.3567483594802" y1="246.71903902723955" x2="373.56441195783725" y2="244.12648904391074" stroke="#afeeee" fill="none" stroke-width="2.0"/><line x1="379.3567483594802" y1="246.71903902723955" x2="376.48692492442063" y2="241.61427364505244" stroke="#afeeee" fill="none" stroke-width="2.0"/><line x1="405.14824403756967" y1="280.1009190765736" x2="402.575784424348" y2="274.01484564867195" stroke="#afeeee" fill="none" stroke-width="2.0"/><line x1="402.575784424348" y1="274.01484564867195" x2="400.0066888393327" y2="267.9367310328632" stroke="#afeeee" fill="none" stroke-width="2.0"/><line x1="400.0066888393327" y1="267.9367310328632" x2="397.44095068808144" y2="261.86655962763484" stroke="#afeeee" fill="none" stroke-width="2.0"/><line x1="397.44095068808144" y1="261.86655962763484" x2="398.8561137312114" y2="255.7842485507462" stroke="#afeeee" fill="none" stroke-width="2.0"/><line x1="398.8561137312114" y1="255.7842485507462" x2="400.2668783381957" y2="249.72084176691402" stroke="#afeeee" fill="none" stroke-width="2.0"/><line x1="400.2668783381957" y1="249.72084176691402" x2="405.0949340901919" y2="245.97171391024813" stroke="#afeeee" fill="none" stroke-width="2.0"/><line x1="405.0949340901919" y1="245.97171391024813" x2="409.90506641287186" y2="242.2365041256981" stroke="#afeeee" fill="none" stroke-width="2.0"/><line x1="409.90506641287186" y1="242.2365041256981" x2="411.29134068599353" y2="236.22588843854766" stroke="#afeeee" fill="none" stroke-width="2.0"/><line x1="409.90506641287186" y1="242.2365041256981" x2="416.27588679382" y2="242.22396587958872" stroke="#afeeee" fill="none" stroke-width="2.0"/><line x1="409.90506641287186" y1="242.2365041256981" x2="412.73113400046174" y2="240.46993742402884" stroke="#afeeee" fill="none" stroke-width="2.0"/><line x1="409.90506641287186" y1="242.2365041256981" x2="414.8415692701345" y2="237.97288455077563" stroke="#afeeee" fill="none" stroke-width="2.0"/><line x1="409.90506641287186" y1="242.2365041256981" x2="414.6973749283646" y2="238.51513505373936" stroke="#afeeee" fill="none" stroke-width="2.0"/><line x1="400.2668783381957" y1="249.72084176691402" x2="402.1447595726161" y2="243.31865486642" stroke="#afeeee" fill="none" stroke-width="2.0"/><line x1="402.1447595726161" y1="243.31865486642" x2="404.0224579409511" y2="236.91709140410552" stroke="#afeeee" fill="none" stroke-width="2.0"/><line x1="404.0224579409511" y1="236.91709140410552" x2="405.89997346991004" y2="230.51615128891018" stroke="#afeeee" fill="none" stroke-width="2.0"/><line x1="405.89997346991004" y1="230.51615128891018" x2="406.68249817140844" y2="225.4745149877126" stroke="#afeeee" fill="none" stroke-width="2.0"/><line x1="405.89997346991004" y1="230.51615128891018" x2="408.1592996422319" y2="225.20097675719995" stroke="#afeeee" fill="none" stroke-width="2.0"/><line x1="405.89997346991004" y1="230.51615128891018" x2="411.1090205172698" y2="226.49365897002565" stroke="#afeeee" fill="none" stroke-width="2.0"/><line x1="405.89997346991004" y1="230.51615128891018" x2="403.7240694856001" y2="224.18121637355023" stroke="#afeeee" fill="none" stroke-width="2.0"/><line x1="405.89997346991004" y1="230.51615128891018" x2="407.7773061861974" y2="224.11583442979168" stroke="#afeeee" fill="none" stroke-width="2.0"/><line x1="397.44095068808144" y1="261.86655962763484" x2="395.53680409932247" y2="255.46263968821313" stroke="#afeeee" fill="none" stroke-width="2.0"/><line x1="395.53680409932247" y1="255.46263968821313" x2="393.6295590216586" y2="249.04829908317822" stroke="#afeeee" fill="none" stroke-width="2.0"/><line x1="393.6295590216586" y1="249.04829908317822" x2="391.7192078859895" y2="242.62351235655262" stroke="#afeeee" fill="none" stroke-width="2.0"/><line x1="391.7192078859895" y1="242.62351235655262" x2="391.59527275572736" y2="237.31439213491245" stroke="#afeeee" fill="none" stroke-width="2.0"/><line x1="391.59527275572736" y1="237.31439213491245" x2="391.47049469028997" y2="231.96916234390136" stroke="#afeeee" fill="none" stroke-width="2.0"/><line x1="391.47049469028997" y1="231.96916234390136" x2="389.5438008758438" y2="225.481357350834" stroke="#afeeee" fill="none" stroke-width="2.0"/><line x1="391.47049469028997" y1="231.96916234390136" x2="393.20113119448155" y2="229.763143083307" stroke="#afeeee" fill="none" stroke-width="2.0"/><line x1="391.47049469028997" y1="231.96916234390136" x2="394.9053655285114" y2="226.45663146117073" stroke="#afeeee" fill="none" stroke-width="2.0"/><line x1="391.47049469028997" y1="231.96916234390136" x2="387.82510092017105" y2="228.7820008162085" stroke="#afeeee" fill="none" stroke-width="2.0"/><line x1="391.47049469028997" y1="231.96916234390136" x2="391.3448650605952" y2="226.5874533317879" stroke="#afeeee" fill="none" stroke-width="2.0"/><line x1="391.7192078859895" y1="242.62351235655262" x2="388.05273981744966" y2="237.11455059413186" stroke="#afeeee" fill="none" stroke-width="2.0"/><line x1="388.05273981744966" y1="237.11455059413186" x2="384.3765859459142" y2="231.59103566573685" stroke="#afeeee" fill="none" stroke-width="2.0"/><line x1="384.3765859459142" y1="231.59103566573685" x2="380.690707839768" y2="226.05290982688587" stroke="#afeeee" fill="none" stroke-width="2.0"/><line x1="380.690707839768" y1="226.05290982688587" x2="380.7132245905008" y2="219.29187144360918" stroke="#afeeee" fill="none" stroke-width="2.0"/><line x1="380.690707839768" y1="226.05290982688587" x2="374.68497560000907" y2="223.83541927908328" stroke="#afeeee" fill="none" stroke-width="2.0"/><line x1="380.690707839768" y1="226.05290982688587" x2="379.09756281590154" y2="221.41413873033514" stroke="#afeeee" fill="none" stroke-width="2.0"/><line x1="380.690707839768" y1="226.05290982688587" x2="376.3133007247375" y2="221.7085376133307" stroke="#afeeee" fill="none" stroke-width="2.0"/><line x1="380.690707839768" y1="226.05290982688587" x2="376.99506686380647" y2="220.50011502719855" stroke="#afeeee" fill="none" stroke-width="2.0"/><line x1="425.0" y1="306.5310063132948" x2="424.0461181773793" y2="300.2193440991361" stroke="#afeeee" fill="none" stroke-width="2.0"/><line x1="424.0461181773793" y1="300.2193440991361" x2="423.0948437646774" y2="293.9249346413156" stroke="#afeeee" fill="none" stroke-width="2.0"/><line x1="423.0948437646774" y1="293.9249346413156" x2="422.14616608556025" y2="287.6477072964766" stroke="#afeeee" fill="none" stroke-width="2.0"/><line x1="422.14616608556025" y1="287.6477072964766" x2="419.67471674356403" y2="283.9296563896006" stroke="#afeeee" fill="none" stroke-width="2.0"/><line x1="419.67471674356403" y1="283.9296563896006" x2="417.2208044257469" y2="280.2379881997585" stroke="#afeeee" fill="none" stroke-width="2.0"/><line x1="417.2208044257469" y1="280.2379881997585" x2="414.2115605200585" y2="280.49892860548664" stroke="#afeeee" fill="none" stroke-width="2.0"/><line x1="414.2115605200585" y1="280.49892860548664" x2="411.2284810497013" y2="280.75760021593436" stroke="#afeeee" fill="none" stroke-width="2.0"/><line x1="411.2284810497013" y1="280.75760021593436" x2="408.8340322327442" y2="284.80848679613786" stroke="#afeeee" fill="none" stroke-width="2.0"/><line x1="408.8340322327442" y1="284.80848679613786" x2="406.45630867976865" y2="288.8310778676075" stroke="#afeeee" fill="none" stroke-width="2.0"/><line x1="406.45630867976865" y1="288.8310778676075" x2="405.5524767570648" y2="295.0877936299121" stroke="#afeeee" fill="none" stroke-width="2.0"/><line x1="405.5524767570648" y1="295.0877936299121" x2="404.65104987626256" y2="301.3278606512322" stroke="#afeeee" fill="none" stroke-width="2.0"/><line x1="404.65104987626256" y1="301.3278606512322" x2="402.3024043641788" y2="305.26848129649414" stroke="#afeeee" fill="none" stroke-width="2.0"/><line x1="404.65104987626256" y1="301.3278606512322" x2="405.5524767570648" y2="307.4648863630442" stroke="#afeeee" fill="none" stroke-width="2.0"/><line x1="404.65104987626256" y1="301.3278606512322" x2="400.5069369731578" y2="306.31971701377836" stroke="#afeeee" fill="none" stroke-width="2.0"/><line x1="404.65104987626256" y1="301.3278606512322" x2="407.3311488351192" y2="306.4082534070009" stroke="#afeeee" fill="none" stroke-width="2.0"/><line x1="404.65104987626256" y1="301.3278606512322" x2="403.752018450611" y2="307.55134529520734" stroke="#afeeee" fill="none" stroke-width="2.0"/><line x1="406.45630867976865" y1="288.8310778676075" x2="406.003485721296" y2="292.66357346108373" stroke="#afeeee" fill="none" stroke-width="2.0"/><line x1="406.003485721296" y1="292.66357346108373" x2="405.55427092577537" y2="296.4655311404473" stroke="#afeeee" fill="none" stroke-width="2.0"/><line x1="405.55427092577537" y1="296.4655311404473" x2="405.1086213387449" y2="300.23731445348795" stroke="#afeeee" fill="none" stroke-width="2.0"/><line x1="405.1086213387449" y1="300.23731445348795" x2="401.11845680349603" y2="303.9299716956376" stroke="#afeeee" fill="none" stroke-width="2.0"/><line x1="405.1086213387449" y1="300.23731445348795" x2="408.3784217789353" y2="302.6046724650928" stroke="#afeeee" fill="none" stroke-width="2.0"/><line x1="405.1086213387449" y1="300.23731445348795" x2="405.74623734268675" y2="306.26908309354593" stroke="#afeeee" fill="none" stroke-width="2.0"/><line x1="405.1086213387449" y1="300.23731445348795" x2="403.75800967411885" y2="300.2735566130293" stroke="#afeeee" fill="none" stroke-width="2.0"/><line x1="405.1086213387449" y1="300.23731445348795" x2="404.66649468486696" y2="303.97928120018554" stroke="#afeeee" fill="none" stroke-width="2.0"/><line x1="411.2284810497013" y1="280.75760021593436" x2="410.21675393535" y2="281.042597928411" stroke="#afeeee" fill="none" stroke-width="2.0"/><line x1="410.21675393535" y1="281.042597928411" x2="409.2147144581328" y2="281.32486668919375" stroke="#afeeee" fill="none" stroke-width="2.0"/><line x1="409.2147144581328" y1="281.32486668919375" x2="408.2222241373344" y2="281.60444550750395" stroke="#afeeee" fill="none" stroke-width="2.0"/><line x1="408.2222241373344" y1="281.60444550750395" x2="411.1677223673278" y2="281.85583941026323" stroke="#afeeee" fill="none" stroke-width="2.0"/><line x1="411.1677223673278" y1="281.85583941026323" x2="414.08796846346365" y2="282.10507808087226" stroke="#afeeee" fill="none" stroke-width="2.0"/><line x1="414.08796846346365" y1="282.10507808087226" x2="413.08570031109144" y2="282.37728838287444" stroke="#afeeee" fill="none" stroke-width="2.0"/><line x1="414.08796846346365" y1="282.10507808087226" x2="419.7871690510809" y2="282.23284722445374" stroke="#afeeee" fill="none" stroke-width="2.0"/><line x1="414.08796846346365" y1="282.10507808087226" x2="416.4322403442914" y2="286.06118362561915" stroke="#afeeee" fill="none" stroke-width="2.0"/><line x1="414.08796846346365" y1="282.10507808087226" x2="416.4322403442914" y2="278.5491327883019" stroke="#afeeee" fill="none" stroke-width="2.0"/><line x1="414.08796846346365" y1="282.10507808087226" x2="416.98328577435757" y2="282.3521891166557" stroke="#afeeee" fill="none" stroke-width="2.0"/><line x1="408.2222241373344" y1="281.60444550750395" x2="407.2870452753587" y2="279.87825434558033" stroke="#afeeee" fill="none" stroke-width="2.0"/><line x1="407.2870452753587" y1="279.87825434558033" x2="406.3602660939527" y2="278.16756765553015" stroke="#afeeee" fill="none" stroke-width="2.0"/><line x1="406.3602660939527" y1="278.16756765553015" x2="405.44177393147066" y2="276.47217748190803" stroke="#afeeee" fill="none" stroke-width="2.0"/><line x1="405.44177393147066" y1="276.47217748190803" x2="404.53145813208164" y2="278.71799632375456" stroke="#afeeee" fill="none" stroke-width="2.0"/><line x1="405.44177393147066" y1="276.47217748190803" x2="404.87820970043646" y2="271.49912472632957" stroke="#afeeee" fill="none" stroke-width="2.0"/><line x1="405.44177393147066" y1="276.47217748190803" x2="408.3981988020434" y2="275.14151970024136" stroke="#afeeee" fill="none" stroke-width="2.0"/><line x1="405.44177393147066" y1="276.47217748190803" x2="401.00776833419565" y2="275.08171548348264" stroke="#afeeee" fill="none" stroke-width="2.0"/><line x1="405.44177393147066" y1="276.47217748190803" x2="404.53145813208164" y2="274.7918795716824" stroke="#afeeee" fill="none" stroke-width="2.0"/><line x1="417.2208044257469" y1="280.2379881997585" x2="416.7170872683369" y2="276.79566736248245" stroke="#afeeee" fill="none" stroke-width="2.0"/><line x1="416.7170872683369" y1="276.79566736248245" x2="416.21744697573126" y2="273.3812071538553" stroke="#afeeee" fill="none" stroke-width="2.0"/><line x1="416.21744697573126" y1="273.3812071538553" x2="415.721834252894" y2="269.9942706996476" stroke="#afeeee" fill="none" stroke-width="2.0"/><line x1="415.721834252894" y1="269.9942706996476" x2="419.0016179920533" y2="268.01474308679497" stroke="#afeeee" fill="none" stroke-width="2.0"/><line x1="419.0016179920533" y1="268.01474308679497" x2="422.25611458849835" y2="266.05047763792436" stroke="#afeeee" fill="none" stroke-width="2.0"/><line x1="422.25611458849835" y1="266.05047763792436" x2="428.00477701088363" y2="266.21561661333976" stroke="#afeeee" fill="none" stroke-width="2.0"/><line x1="428.00477701088363" y1="266.21561661333976" x2="433.7278216079882" y2="266.3800196781887" stroke="#afeeee" fill="none" stroke-width="2.0"/><line x1="433.7278216079882" y1="266.3800196781887" x2="436.8991276921725" y2="264.4382336146132" stroke="#afeeee" fill="none" stroke-width="2.0"/><line x1="433.7278216079882" y1="266.3800196781887" x2="439.78520128822504" y2="268.5951902373971" stroke="#afeeee" fill="none" stroke-width="2.0"/><line x1="433.7278216079882" y1="266.3800196781887" x2="437.2923548159729" y2="269.6825308398746" stroke="#afeeee" fill="none" stroke-width="2.0"/><line x1="433.7278216079882" y1="266.3800196781887" x2="439.3892059365436" y2="263.333076149453" stroke="#afeeee" fill="none" stroke-width="2.0"/><line x1="433.7278216079882" y1="266.3800196781887" x2="439.4254192405873" y2="266.54369174070405" stroke="#afeeee" fill="none" stroke-width="2.0"/><line x1="422.25611458849835" y1="266.05047763792436" x2="425.8710573231701" y2="262.5198360735421" stroke="#afeeee" fill="none" stroke-width="2.0"/><line x1="425.8710573231701" y1="262.5198360735421" x2="429.4652581784656" y2="259.00945268385954" stroke="#afeeee" fill="none" stroke-width="2.0"/><line x1="429.4652581784656" y1="259.00945268385954" x2="433.03889516335147" y2="255.51915361111435" stroke="#afeeee" fill="none" stroke-width="2.0"/><line x1="433.03889516335147" y1="255.51915361111435" x2="435.49987726950235" y2="255.38670140888098" stroke="#afeeee" fill="none" stroke-width="2.0"/><line x1="433.03889516335147" y1="255.51915361111435" x2="436.33206382181004" y2="250.02213052031408" stroke="#afeeee" fill="none" stroke-width="2.0"/><line x1="433.03889516335147" y1="255.51915361111435" x2="439.03432927849883" y2="254.42939691616573" stroke="#afeeee" fill="none" stroke-width="2.0"/><line x1="433.03889516335147" y1="255.51915361111435" x2="432.8013020231321" y2="250.99363877648398" stroke="#afeeee" fill="none" stroke-width="2.0"/><line x1="433.03889516335147" y1="255.51915361111435" x2="436.59214425568246" y2="252.04876698128936" stroke="#afeeee" fill="none" stroke-width="2.0"/><line x1="415.721834252894" y1="269.9942706996476" x2="415.793325944725" y2="265.1111084950639" stroke="#afeeee" fill="none" stroke-width="2.0"/><line x1="415.793325944725" y1="265.1111084950639" x2="415.8643847071668" y2="260.2575170612447" stroke="#afeeee" fill="none" stroke-width="2.0"/><line x1="415.8643847071668" y1="260.2575170612447" x2="415.9350144608582" y2="255.43322860322058" stroke="#afeeee" fill="none" stroke-width="2.0"/><line x1="415.9350144608582" y1="255.43322860322058" x2="417.0510543251023" y2="249.09078835495058" stroke="#afeeee" fill="none" stroke-width="2.0"/><line x1="417.0510543251023" y1="249.09078835495058" x2="418.1664114741881" y2="242.75222796817718" stroke="#afeeee" fill="none" stroke-width="2.0"/><line x1="418.1664114741881" y1="242.75222796817718" x2="418.22986174780567" y2="237.99804401622254" stroke="#afeeee" fill="none" stroke-width="2.0"/><line x1="418.1664114741881" y1="242.75222796817718" x2="419.91130408786245" y2="237.25401918566035" stroke="#afeeee" fill="none" stroke-width="2.0"/><line x1="418.1664114741881" y1="242.75222796817718" x2="422.7192227716924" y2="238.38107803017675" stroke="#afeeee" fill="none" stroke-width="2.0"/><line x1="418.1664114741881" y1="242.75222796817718" x2="415.4127718750019" y2="236.872112540425" stroke="#afeeee" fill="none" stroke-width="2.0"/><line x1="418.1664114741881" y1="242.75222796817718" x2="419.28108653438034" y2="236.41754388384692" stroke="#afeeee" fill="none" stroke-width="2.0"/><line x1="415.9350144608582" y1="255.43322860322058" x2="414.0834145958149" y2="250.48031152383766" stroke="#afeeee" fill="none" stroke-width="2.0"/><line x1="414.0834145958149" y1="250.48031152383766" x2="412.2411943448637" y2="245.55248434196034" stroke="#afeeee" fill="none" stroke-width="2.0"/><line x1="412.2411943448637" y1="245.55248434196034" x2="410.40828261686903" y2="240.64955689312234" stroke="#afeeee" fill="none" stroke-width="2.0"/><line x1="410.40828261686903" y1="240.64955689312234" x2="412.39468129905634" y2="236.55801738604538" stroke="#afeeee" fill="none" stroke-width="2.0"/><line x1="410.40828261686903" y1="240.64955689312234" x2="405.46189304042457" y2="236.84449893774087" stroke="#afeeee" fill="none" stroke-width="2.0"/><line x1="410.40828261686903" y1="240.64955689312234" x2="409.968806167087" y2="234.22656015787027" stroke="#afeeee" fill="none" stroke-width="2.0"/><line x1="410.40828261686903" y1="240.64955689312234" x2="407.89994925194674" y2="239.1651854962306" stroke="#afeeee" fill="none" stroke-width="2.0"/><line x1="410.40828261686903" y1="240.64955689312234" x2="408.58460903731526" y2="235.7713409297723" stroke="#afeeee" fill="none" stroke-width="2.0"/><line x1="422.14616608556025" y1="287.6477072964766" x2="423.0725527734869" y2="281.7349340028755" stroke="#afeeee" fill="none" stroke-width="2.0"/><line x1="423.0725527734869" y1="281.7349340028755" x2="423.9952328047607" y2="275.84581888652446" stroke="#afeeee" fill="none" stroke-width="2.0"/><line x1="423.9952328047607" y1="275.84581888652446" x2="424.9142283815654" y2="269.980220239344" stroke="#afeeee" fill="none" stroke-width="2.0"/><line x1="424.9142283815654" y1="269.980220239344" x2="429.1026798550121" y2="266.4705190263018" stroke="#afeeee" fill="none" stroke-width="2.0"/><line x1="429.1026798550121" y1="266.4705190263018" x2="433.26907783050444" y2="262.97929748027076" stroke="#afeeee" fill="none" stroke-width="2.0"/><line x1="433.26907783050444" y1="262.97929748027076" x2="439.0837451570529" y2="263.1540171089111" stroke="#afeeee" fill="none" stroke-width="2.0"/><line x1="439.0837451570529" y1="263.1540171089111" x2="444.87209132393434" y2="263.3279458370606" stroke="#afeeee" fill="none" stroke-width="2.0"/><line x1="444.87209132393434" y1="263.3279458370606" x2="450.1049741154769" y2="267.07201433447307" stroke="#afeeee" fill="none" stroke-width="2.0"/><line x1="450.1049741154769" y1="267.07201433447307" x2="455.3269802419715" y2="270.8083007009674" stroke="#afeeee" fill="none" stroke-width="2.0"/><line x1="455.3269802419715" y1="270.8083007009674" x2="461.0536730990354" y2="270.96422748083984" stroke="#afeeee" fill="none" stroke-width="2.0"/><line x1="455.3269802419715" y1="270.8083007009674" x2="458.02951471849923" y2="276.6945741166801" stroke="#afeeee" fill="none" stroke-width="2.0"/><line x1="455.3269802419715" y1="270.8083007009674" x2="457.7753935282285" y2="275.1708051920279" stroke="#afeeee" fill="none" stroke-width="2.0"/><line x1="455.3269802419715" y1="270.8083007009674" x2="461.3206695057452" y2="272.47334186225925" stroke="#afeeee" fill="none" stroke-width="2.0"/><line x1="455.3269802419715" y1="270.8083007009674" x2="460.538143579303" y2="274.53682917435634" stroke="#afeeee" fill="none" stroke-width="2.0"/><line x1="444.87209132393434" y1="263.3279458370606" x2="451.2749800245924" y2="262.76892382270603" stroke="#afeeee" fill="none" stroke-width="2.0"/><line x1="451.2749800245924" y1="262.76892382270603" x2="457.6666848320204" y2="262.2108782492696" stroke="#afeeee" fill="none" stroke-width="2.0"/><line x1="457.6666848320204" y1="262.2108782492696" x2="464.0472350229238" y2="261.65380656066714" stroke="#afeeee" fill="none" stroke-width="2.0"/><line x1="464.0472350229238" y1="261.65380656066714" x2="468.53098940934467" y2="262.54375515631807" stroke="#afeeee" fill="none" stroke-width="2.0"/><line x1="464.0472350229238" y1="261.65380656066714" x2="469.87478893203075" y2="259.85662753383536" stroke="#afeeee" fill="none" stroke-width="2.0"/><line x1="464.0472350229238" y1="261.65380656066714" x2="469.7848540808568" y2="264.80058886077603" stroke="#afeeee" fill="none" stroke-width="2.0"/><line x1="464.0472350229238" y1="261.65380656066714" x2="468.61819616013827" y2="257.61274222356207" stroke="#afeeee" fill="none" stroke-width="2.0"/><line x1="464.0472350229238" y1="261.65380656066714" x2="470.4166597719117" y2="261.09770620972824" stroke="#afeeee" fill="none" stroke-width="2.0"/><line x1="433.26907783050444" y1="262.97929748027076" x2="438.12038414948717" y2="258.94431874059075" stroke="#afeeee" fill="none" stroke-width="2.0"/><line x1="438.12038414948717" y1="258.94431874059075" x2="442.9598791622745" y2="254.9191638228367" stroke="#afeeee" fill="none" stroke-width="2.0"/><line x1="442.9598791622745" y1="254.9191638228367" x2="447.7876059512834" y2="250.90379689405466" stroke="#afeeee" fill="none" stroke-width="2.0"/><line x1="447.7876059512834" y1="250.90379689405466" x2="452.6172871475466" y2="246.93585235396438" stroke="#afeeee" fill="none" stroke-width="2.0"/><line x1="452.6172871475466" y1="246.93585235396438" x2="457.4644783311474" y2="242.95352204888678" stroke="#afeeee" fill="none" stroke-width="2.0"/><line x1="457.4644783311474" y1="242.95352204888678" x2="462.28612496700606" y2="238.9430923947213" stroke="#afeeee" fill="none" stroke-width="2.0"/><line x1="457.4644783311474" y1="242.95352204888678" x2="460.50672084271474" y2="240.50344313061447" stroke="#afeeee" fill="none" stroke-width="2.0"/><line x1="457.4644783311474" y1="242.95352204888678" x2="463.86402151339814" y2="242.7205127324723" stroke="#afeeee" fill="none" stroke-width="2.0"/><line x1="457.4644783311474" y1="242.95352204888678" x2="458.93290226056763" y2="236.72096048070443" stroke="#afeeee" fill="none" stroke-width="2.0"/><line x1="457.4644783311474" y1="242.95352204888678" x2="462.32927489858537" y2="238.95672760345838" stroke="#afeeee" fill="none" stroke-width="2.0"/><line x1="447.7876059512834" y1="250.90379689405466" x2="451.079236229904" y2="245.5271795407175" stroke="#afeeee" fill="none" stroke-width="2.0"/><line x1="451.079236229904" y1="245.5271795407175" x2="454.3637651256723" y2="240.16216173381918" stroke="#afeeee" fill="none" stroke-width="2.0"/><line x1="454.3637651256723" y1="240.16216173381918" x2="457.64121559467424" y2="234.80870597641155" stroke="#afeeee" fill="none" stroke-width="2.0"/><line x1="457.64121559467424" y1="234.80870597641155" x2="463.47948288717333" y2="232.59248082103363" stroke="#afeeee" fill="none" stroke-width="2.0"/><line x1="457.64121559467424" y1="234.80870597641155" x2="457.09337544303247" y2="228.37822929540414" stroke="#afeeee" fill="none" stroke-width="2.0"/><line x1="457.64121559467424" y1="234.80870597641155" x2="461.2411649587223" y2="229.71394024385114" stroke="#afeeee" fill="none" stroke-width="2.0"/><line x1="457.64121559467424" y1="234.80870597641155" x2="459.3392486489569" y2="231.25398963740184" stroke="#afeeee" fill="none" stroke-width="2.0"/><line x1="457.64121559467424" y1="234.80870597641155" x2="460.91161049415774" y2="229.4667749329904" stroke="#afeeee" fill="none" stroke-width="2.0"/><line x1="424.9142283815654" y1="269.980220239344" x2="426.684611954147" y2="263.6935517970646" stroke="#afeeee" fill="none" stroke-width="2.0"/><line x1="426.684611954147" y1="263.6935517970646" x2="428.4528432721405" y2="257.4145260550495" stroke="#afeeee" fill="none" stroke-width="2.0"/><line x1="428.4528432721405" y1="257.4145260550495" x2="430.21892625790434" y2="251.14312908492383" stroke="#afeeee" fill="none" stroke-width="2.0"/><line x1="430.21892625790434" y1="251.14312908492383" x2="433.12492252252815" y2="245.76559425369175" stroke="#afeeee" fill="none" stroke-width="2.0"/><line x1="433.12492252252815" y1="245.76559425369175" x2="436.0437642699468" y2="240.36428890630486" stroke="#afeeee" fill="none" stroke-width="2.0"/><line x1="436.0437642699468" y1="240.36428890630486" x2="439.02018981984963" y2="237.88380868072437" stroke="#afeeee" fill="none" stroke-width="2.0"/><line x1="439.02018981984963" y1="237.88380868072437" x2="442.0217461617063" y2="235.38238506803424" stroke="#afeeee" fill="none" stroke-width="2.0"/><line x1="442.0217461617063" y1="235.38238506803424" x2="444.99168148820445" y2="229.90011353901002" stroke="#afeeee" fill="none" stroke-width="2.0"/><line x1="442.0217461617063" y1="235.38238506803424" x2="443.94440131350575" y2="236.79446077636385" stroke="#afeeee" fill="none" stroke-width="2.0"/><line x1="442.0217461617063" y1="235.38238506803424" x2="447.952301916191" y2="234.61475880302288" stroke="#afeeee" fill="none" stroke-width="2.0"/><line x1="442.0217461617063" y1="235.38238506803424" x2="440.9777304536471" y2="232.06894336879736" stroke="#afeeee" fill="none" stroke-width="2.0"/><line x1="442.0217461617063" y1="235.38238506803424" x2="445.048752924314" y2="232.85975169741567" stroke="#afeeee" fill="none" stroke-width="2.0"/><line x1="436.0437642699468" y1="240.36428890630486" x2="437.01205180986057" y2="234.5430678003313" stroke="#afeeee" fill="none" stroke-width="2.0"/><line x1="437.01205180986057" y1="234.5430678003313" x2="437.9854899816511" y2="228.69088175289698" stroke="#afeeee" fill="none" stroke-width="2.0"/><line x1="437.9854899816511" y1="228.69088175289698" x2="438.96411999170704" y2="222.8074830364535" stroke="#afeeee" fill="none" stroke-width="2.0"/><line x1="438.96411999170704" y1="222.8074830364535" x2="443.6113087682077" y2="218.24603094617987" stroke="#afeeee" fill="none" stroke-width="2.0"/><line x1="438.96411999170704" y1="222.8074830364535" x2="435.9035122635724" y2="217.80311219854718" stroke="#afeeee" fill="none" stroke-width="2.0"/><line x1="438.96411999170704" y1="222.8074830364535" x2="440.3736002312559" y2="219.9038791197642" stroke="#afeeee" fill="none" stroke-width="2.0"/><line x1="438.96411999170704" y1="222.8074830364535" x2="439.14871924990405" y2="216.15460753919774" stroke="#afeeee" fill="none" stroke-width="2.0"/><line x1="438.96411999170704" y1="222.8074830364535" x2="439.9479834871412" y2="216.89262127387354" stroke="#afeeee" fill="none" stroke-width="2.0"/><line x1="430.21892625790434" y1="251.14312908492383" x2="430.08600382275677" y2="244.53374776981542" stroke="#afeeee" fill="none" stroke-width="2.0"/><line x1="430.08600382275677" y1="244.53374776981542" x2="429.9530911030459" y2="237.9248495411477" stroke="#afeeee" fill="none" stroke-width="2.0"/><line x1="429.9530911030459" y1="237.9248495411477" x2="429.82018809770665" y2="231.31643434595856" stroke="#afeeee" fill="none" stroke-width="2.0"/><line x1="429.82018809770665" y1="231.31643434595856" x2="426.1109842117543" y2="225.90772457933747" stroke="#afeeee" fill="none" stroke-width="2.0"/><line x1="426.1109842117543" y1="225.90772457933747" x2="422.3939023717185" y2="220.4875272891124" stroke="#afeeee" fill="none" stroke-width="2.0"/><line x1="422.3939023717185" y1="220.4875272891124" x2="422.2609987927514" y2="213.86595760347097" stroke="#afeeee" fill="none" stroke-width="2.0"/><line x1="422.3939023717185" y1="220.4875272891124" x2="416.49570845836536" y2="218.32616974689313" stroke="#afeeee" fill="none" stroke-width="2.0"/><line x1="422.3939023717185" y1="220.4875272891124" x2="420.83150589680014" y2="215.70242105197298" stroke="#afeeee" fill="none" stroke-width="2.0"/><line x1="422.3939023717185" y1="220.4875272891124" x2="417.93818103068645" y2="216.48359870450406" stroke="#afeeee" fill="none" stroke-width="2.0"/><line x1="422.3939023717185" y1="220.4875272891124" x2="418.66891745301524" y2="215.05580583896233" stroke="#afeeee" fill="none" stroke-width="2.0"/><line x1="429.82018809770665" y1="231.31643434595856" x2="428.9220384354923" y2="225.22371238068615" stroke="#afeeee" fill="none" stroke-width="2.0"/><line x1="428.9220384354923" y1="225.22371238068615" x2="428.0264855507429" y2="219.1486060130871" stroke="#afeeee" fill="none" stroke-width="2.0"/><line x1="428.0264855507429" y1="219.1486060130871" x2="427.13351819780655" y2="213.0910389567316" stroke="#afeeee" fill="none" stroke-width="2.0"/><line x1="427.13351819780655" y1="213.0910389567316" x2="427.774570904468" y2="206.617166193883" stroke="#afeeee" fill="none" stroke-width="2.0"/><line x1="427.13351819780655" y1="213.0910389567316" x2="425.05827986739746" y2="209.78109371474835" stroke="#afeeee" fill="none" stroke-width="2.0"/><line x1="427.13351819780655" y1="213.0910389567316" x2="422.82740430335605" y2="208.12147918095224" stroke="#afeeee" fill="none" stroke-width="2.0"/><line x1="427.13351819780655" y1="213.0910389567316" x2="429.99078928809763" y2="208.28463786355775" stroke="#afeeee" fill="none" stroke-width="2.0"/><line x1="427.13351819780655" y1="213.0910389567316" x2="426.2431251958717" y2="207.05093536504495" stroke="#afeeee" fill="none" stroke-width="2.0"/></svg>